HIERARCHY
ROOT Hips
{
	OFFSET 0.000000 0.000000 0.000000 
	CHANNELS 6 Xposition Yposition Zposition Yrotation Xrotation Zrotation
	JOINT Spine
	{
		OFFSET 0.000000 0.072080 0.012321 
		CHANNELS 3 Xrotation Yrotation Zrotation
		JOINT Spine1
		{
			OFFSET 0.000000 0.126984 -0.001294 
			CHANNELS 3 Xrotation Yrotation Zrotation
			JOINT Spine2
			{
				OFFSET 0.000000 0.106559 -0.010096 
				CHANNELS 3 Xrotation Yrotation Zrotation
				JOINT Neck
				{
					OFFSET 0.000000 0.108417 -0.034017 
					CHANNELS 3 Xrotation Yrotation Zrotation
					JOINT Neck1
					{
						OFFSET 0.000000 0.033906 0.007241 
						CHANNELS 3 Xrotation Yrotation Zrotation
						JOINT Head
						{
							OFFSET 0.000000 0.031458 0.006707 
							CHANNELS 3 Xrotation Yrotation Zrotation
							End Site
							{
								OFFSET 0.000000 0.179920 0.000962 
							}
						}
					}
				}
				JOINT LeftShoulder
				{
					OFFSET 0.048002 0.079586 -0.029634 
					CHANNELS 3 Zrotation Xrotation Yrotation
					JOINT LeftArm
					{
						OFFSET 0.096243 -0.008695 -0.014012 
						CHANNELS 3 Zrotation Xrotation Yrotation
						JOINT LeftForeArm
						{
							OFFSET 0.216305 0.000000 0.000000 
							CHANNELS 3 Xrotation Zrotation Yrotation
							JOINT LeftHand
							{
								OFFSET 0.217764 0.000000 0.000000 
								CHANNELS 3 Zrotation Yrotation Xrotation
								JOINT LeftHandThumb1
								{
									OFFSET 0.018582 -0.007835 0.020476 
									CHANNELS 3 Zrotation Xrotation Yrotation
									JOINT LeftHandThumb2
									{
										OFFSET 0.026269 -0.007835 0.022186 
										CHANNELS 3 Zrotation Xrotation Yrotation
										JOINT LeftHandThumb3
										{
											OFFSET 0.035170 -0.010504 0.017018 
											CHANNELS 3 Zrotation Xrotation Yrotation
											End Site
											{
												OFFSET 0.020312 -0.007813 0.007813 
											}
										}
									}
								}
								JOINT LeftHandMiddle1
								{
									OFFSET 0.081749 0.004803 0.003358 
									CHANNELS 3 Zrotation Xrotation Yrotation
									JOINT LeftHandMiddle2
									{
										OFFSET 0.045251 0.000000 0.000000 
										CHANNELS 3 Zrotation Xrotation Yrotation
										JOINT LeftHandMiddle3
										{
											OFFSET 0.029009 0.000000 0.000000 
											CHANNELS 3 Zrotation Xrotation Yrotation
											End Site
											{
												OFFSET 0.017969 0.000000 0.000000 
											}
										}
									}
								}
								JOINT LeftHandIndex1
								{
									OFFSET 0.081207 0.004803 0.021137 
									CHANNELS 3 Zrotation Xrotation Yrotation
									JOINT LeftHandIndex2
									{
										OFFSET 0.043354 0.000000 0.000000 
										CHANNELS 3 Zrotation Xrotation Yrotation
										JOINT LeftHandIndex3
										{
											OFFSET 0.026493 0.000000 0.000000 
											CHANNELS 3 Zrotation Xrotation Yrotation
											End Site
											{
												OFFSET 0.019531 0.000000 0.000000 
											}
										}
									}
								}
								JOINT LeftHandRing1
								{
									OFFSET 0.080666 0.002509 -0.014652 
									CHANNELS 3 Zrotation Xrotation Yrotation
									JOINT LeftHandRing2
									{
										OFFSET 0.042541 0.000000 0.000000 
										CHANNELS 3 Zrotation Xrotation Yrotation
										JOINT LeftHandRing3
										{
											OFFSET 0.029009 0.000000 0.000000 
											CHANNELS 3 Zrotation Xrotation Yrotation
											End Site
											{
												OFFSET 0.015625 0.000000 0.000000 
											}
										}
									}
								}
								JOINT LeftHandPinky1
								{
									OFFSET 0.078227 -0.000612 -0.030993 
									CHANNELS 3 Zrotation Xrotation Yrotation
									JOINT LeftHandPinky2
									{
										OFFSET 0.028721 0.000000 0.000000 
										CHANNELS 3 Zrotation Xrotation Yrotation
										JOINT LeftHandPinky3
										{
											OFFSET 0.021963 0.000000 0.000000 
											CHANNELS 3 Zrotation Xrotation Yrotation
											End Site
											{
												OFFSET 0.022656 0.000000 0.000000 
											}
										}
									}
								}
							}
						}
					}
				}
				JOINT RightShoulder
				{
					OFFSET -0.047970 0.079586 -0.029634 
					CHANNELS 3 Zrotation Xrotation Yrotation
					JOINT RightArm
					{
						OFFSET -0.096274 -0.008695 -0.014012 
						CHANNELS 3 Zrotation Xrotation Yrotation
						JOINT RightForeArm
						{
							OFFSET -0.216305 0.000000 0.000000 
							CHANNELS 3 Xrotation Zrotation Yrotation
							JOINT RightHand
							{
								OFFSET -0.217764 0.000000 0.000000 
								CHANNELS 3 Zrotation Yrotation Xrotation
								JOINT RightHandThumb1
								{
									OFFSET -0.019670 -0.007318 0.019638 
									CHANNELS 3 Zrotation Xrotation Yrotation
									JOINT RightHandThumb2
									{
										OFFSET -0.025498 -0.008492 0.023179 
										CHANNELS 3 Zrotation Xrotation Yrotation
										JOINT RightHandThumb3
										{
											OFFSET -0.034504 -0.010705 0.016680 
											CHANNELS 3 Zrotation Xrotation Yrotation
											End Site
											{
												OFFSET -0.020312 -0.007813 0.007813 
											}
										}
									}
								}
								JOINT RightHandIndex1
								{
									OFFSET -0.081770 0.003825 0.021187 
									CHANNELS 3 Zrotation Xrotation Yrotation
									JOINT RightHandIndex2
									{
										OFFSET -0.042006 0.000000 0.000000 
										CHANNELS 3 Zrotation Xrotation Yrotation
										JOINT RightHandIndex3
										{
											OFFSET -0.026449 0.000000 0.000000 
											CHANNELS 3 Zrotation Xrotation Yrotation
											End Site
											{
												OFFSET -0.020312 0.000000 0.000000 
											}
										}
									}
								}
								JOINT RightHandMiddle1
								{
									OFFSET -0.084059 0.003825 0.003342 
									CHANNELS 3 Zrotation Xrotation Yrotation
									JOINT RightHandMiddle2
									{
										OFFSET -0.043881 0.000000 0.000000 
										CHANNELS 3 Zrotation Xrotation Yrotation
										JOINT RightHandMiddle3
										{
											OFFSET -0.029191 0.000000 0.000000 
											CHANNELS 3 Zrotation Xrotation Yrotation
											End Site
											{
												OFFSET -0.017969 0.000000 0.000000 
											}
										}
									}
								}
								JOINT RightHandRing1
								{
									OFFSET -0.081798 0.003030 -0.015127 
									CHANNELS 3 Zrotation Xrotation Yrotation
									JOINT RightHandRing2
									{
										OFFSET -0.042198 0.000000 0.000000 
										CHANNELS 3 Zrotation Xrotation Yrotation
										JOINT RightHandRing3
										{
											OFFSET -0.026497 0.000000 0.000000 
											CHANNELS 3 Zrotation Xrotation Yrotation
											End Site
											{
												OFFSET -0.017188 0.000000 0.000000 
											}
										}
									}
								}
								JOINT RightHandPinky1
								{
									OFFSET -0.077902 -0.000930 -0.030891 
									CHANNELS 3 Zrotation Xrotation Yrotation
									JOINT RightHandPinky2
									{
										OFFSET -0.028538 0.000000 0.000000 
										CHANNELS 3 Zrotation Xrotation Yrotation
										JOINT RightHandPinky3
										{
											OFFSET -0.021734 0.000000 0.000000 
											CHANNELS 3 Zrotation Xrotation Yrotation
											End Site
											{
												OFFSET -0.022656 0.000000 0.000000 
											}
										}
									}
								}
							}
						}
					}
				}
			}
		}
	}
	JOINT LeftUpLeg
	{
		OFFSET 0.075264 -0.025573 0.000000 
		CHANNELS 3 Xrotation Yrotation Zrotation
		JOINT LeftLeg
		{
			OFFSET 0.000000 -0.326016 -0.013516 
			CHANNELS 3 Xrotation Yrotation Zrotation
			JOINT LeftFoot
			{
				OFFSET 0.000098 -0.306172 -0.006623 
				CHANNELS 3 Xrotation Yrotation Zrotation
				JOINT LeftToeBase
				{
					OFFSET -0.001432 -0.095259 0.064705 
					CHANNELS 3 Xrotation Yrotation Zrotation
					End Site
					{
						OFFSET 0.000000 0.000000 0.079438 
					}
				}
			}
		}
	}
	JOINT RightUpLeg
	{
		OFFSET -0.075264 -0.025573 0.000000 
		CHANNELS 3 Xrotation Yrotation Zrotation
		JOINT RightLeg
		{
			OFFSET 0.000000 -0.326016 -0.013516 
			CHANNELS 3 Xrotation Yrotation Zrotation
			JOINT RightFoot
			{
				OFFSET 0.000098 -0.306172 -0.006623 
				CHANNELS 3 Xrotation Yrotation Zrotation
				JOINT RightToeBase
				{
					OFFSET -0.001432 -0.095259 0.064705 
					CHANNELS 3 Xrotation Yrotation Zrotation
					End Site
					{
						OFFSET 0.000025 0.000000 0.079438 
					}
				}
			}
		}
	}
}
MOTION
Frames: 5
Frame Time: 0.033333
0.000661 0.684958 -0.002171 0.461600 20.231800 1.207000 14.546200 2.296500 -0.022700 8.303500 0.584100 -0.282300 8.302400 0.589500 -0.295200 -1.701700 -0.963900 0.278800 -0.000000 0.000000 -0.000000 1.603900 -4.723300 1.971500 -20.673599 2.919000 -7.236300 -54.879799 -1.463400 -24.506500 -0.000000 0.000000 -33.866600 -5.601400 -8.922300 29.090500 4.151900 5.191900 11.631500 11.207600 8.671600 -5.456600 20.440800 -7.949900 -28.337299 -13.533400 0.000600 3.510200 -22.815300 0.001200 -0.005800 -21.590500 0.001100 -0.005500 -11.782800 0.000500 -0.222600 -24.665800 0.001400 -0.006300 -14.752300 0.000500 -0.003800 -14.507000 0.000700 4.683500 -39.163200 0.003400 -0.009500 -20.177799 0.000900 -0.005200 -20.681999 0.001300 0.487600 -28.669901 0.001800 -0.007200 -14.433600 0.000500 -0.003700 16.950600 2.442900 6.801000 48.464500 6.713000 29.792500 0.000000 0.000000 24.387300 -0.763200 9.833200 6.553000 -8.727500 -0.507400 -8.388100 8.466000 8.233200 -8.286200 -15.826900 -21.158899 15.529900 11.512400 0.115300 6.613700 29.905600 0.001100 0.003900 24.709299 0.000700 0.003300 15.139200 0.000300 4.784500 39.124699 0.001800 0.005000 21.542299 0.000600 0.002900 13.313000 0.000300 1.190700 47.010399 0.002500 0.005800 19.998600 0.000500 0.002700 12.141200 -14.348400 -4.239000 38.339199 0.001700 0.004900 18.609200 0.000400 0.002500 -56.130299 -0.523400 0.460600 95.069000 3.622900 -0.032800 -5.674100 0.331300 -3.960800 0.508200 -0.000000 0.000000 -28.613300 -7.176700 0.130000 51.138500 -4.774700 2.171200 -24.262699 -0.825200 3.336700 -15.280000 0.113700 -3.534700 
0.003105 0.696877 0.088880 1.227700 20.324699 3.234000 13.745300 2.046300 -2.140900 8.126000 0.582500 -0.549600 8.122800 0.588600 -0.562400 -1.877600 -1.012500 0.254900 -0.000000 0.000000 -0.000000 1.284200 -5.193000 2.152800 -22.101601 3.045700 -7.174300 -52.652302 1.781200 -27.128599 -0.000000 0.000000 -9.748100 -9.400500 -2.553400 38.762699 4.151900 5.191800 11.631500 13.671500 6.926700 -10.180600 5.782900 -5.654700 -27.340200 -1.746300 -0.005700 11.322900 -22.342300 0.001100 -0.005700 -20.003799 0.000900 -0.005100 6.831500 -0.007500 4.975400 -23.992201 0.001300 -0.006100 -17.305799 0.000700 -0.004500 -0.598800 -0.004800 10.047300 -43.428200 0.004100 -0.010300 -18.664400 0.000800 -0.004800 -8.949800 0.002900 -0.647500 -34.466801 0.002600 -0.008500 -14.509600 0.000500 -0.003800 16.101101 2.125800 5.774500 50.575100 4.690600 26.373800 0.000000 0.000000 34.330299 -1.198900 22.474800 -7.358400 -8.727500 -0.507400 -8.388100 11.054300 8.597700 -12.885000 -10.861900 -19.789600 12.399300 19.499300 0.000600 5.963800 31.539700 0.001200 0.004100 24.711201 0.000700 0.003300 21.097799 0.000400 5.078900 40.067799 0.001900 0.005100 20.966200 0.000500 0.002800 16.780100 0.000200 1.777500 49.789299 0.002800 0.006000 20.052900 0.000500 0.002700 12.625500 -14.803200 -2.460800 38.286400 0.001700 0.004900 18.945999 0.000400 0.002600 -62.510101 1.376100 -1.220200 84.729202 4.690500 -0.756300 -6.344500 0.389100 -3.579000 0.804700 0.000000 -0.000000 -16.606100 -7.500800 -1.741800 39.723900 -3.023800 0.769000 -16.608801 -1.611500 8.357700 -16.761700 0.253900 -5.851700 
0.005213 0.700843 0.178333 2.136200 20.542999 5.087100 13.097900 1.531900 -4.108800 7.919700 0.513600 -0.779800 7.914800 0.523200 -0.791600 -2.267300 -1.007600 0.207400 -0.000000 0.000000 -0.000000 0.260900 -5.450700 2.423300 -24.581400 3.642900 -8.288300 -49.916801 1.246100 -24.617100 0.000000 -0.000000 -2.545900 -15.186300 16.419901 50.294601 4.151900 5.191900 11.631500 17.108801 3.273500 -17.524200 0.049300 -5.642500 -27.274500 -15.317100 -0.090400 -6.547200 -24.104401 0.001300 -0.006100 -14.991300 0.000500 -0.003900 -5.616700 -0.012500 3.698200 -24.711599 0.001400 -0.006300 -19.683001 0.000900 -0.005100 -0.460000 -0.008700 2.281200 -52.639500 0.005900 -0.012000 -17.641701 0.000700 -0.004600 4.422500 0.010100 -4.354200 -38.605400 0.003300 -0.009400 -14.975800 0.000500 -0.003900 15.504300 1.852400 4.784400 52.481602 3.473400 22.776800 0.000000 0.000000 45.454899 -2.666700 27.085800 -9.767200 -8.727500 -0.507400 -8.388100 13.857000 8.499600 -17.815001 -5.361100 -18.217100 8.883500 24.066299 0.125100 6.663600 32.284401 0.001200 0.004200 24.361099 0.000700 0.003300 24.361099 0.000500 5.752200 40.976501 0.001900 0.005200 20.465700 0.000500 0.002800 18.206301 0.000300 2.637700 50.885101 0.002900 0.006100 20.306601 0.000500 0.002700 15.793800 -15.001400 1.324100 36.613899 0.001600 0.004700 19.027800 0.000400 0.002600 -66.879997 2.877200 -2.273400 72.098900 5.272000 -1.884400 -6.389500 0.562800 -3.801700 2.269300 -0.000000 0.000000 -6.089500 -8.691300 -3.287400 30.241699 -1.694400 -0.331400 -9.443700 -1.725000 12.762500 -10.711500 0.314600 -6.501100 
0.007196 0.696691 0.266566 2.458200 20.781300 6.356900 12.586800 0.601100 -5.572800 7.812300 0.316500 -0.991000 7.806700 0.332100 -1.002300 -3.065300 -0.928900 0.225400 -0.000000 0.000000 -0.000000 -1.665700 -5.157000 2.647300 -25.655500 4.171500 -9.560300 -48.340801 2.572900 -16.774599 0.000000 0.000000 -11.842000 -29.164000 42.063702 56.234200 4.151900 5.191900 11.631500 16.734501 3.778500 -16.685801 1.522100 -5.696200 -27.527000 -23.966200 0.000200 -12.020800 -27.390400 0.001700 -0.006900 -14.305200 0.000500 -0.003700 -12.081000 -0.000400 2.246300 -25.719801 0.001500 -0.006500 -19.653900 0.000900 -0.005000 -6.437200 -0.002700 -1.302700 -54.662399 0.006300 -0.012300 -17.959200 0.000700 -0.004600 8.329000 0.000300 -6.969300 -36.706600 0.003000 -0.009000 -15.287600 0.000500 -0.004000 15.439200 1.602600 3.695200 53.690300 3.895200 20.706301 0.000000 0.000000 55.681198 -5.258200 26.676001 -3.456700 -8.727500 -0.507300 -8.388100 13.603900 8.675900 -17.358601 -2.874800 -17.394800 6.802200 25.188101 0.417500 7.921100 34.098900 0.001400 0.004400 24.796700 0.000700 0.003300 24.852200 0.000800 6.583000 42.525700 0.002100 0.005300 20.988300 0.000500 0.002800 20.009501 0.000900 2.709500 52.185200 0.003100 0.006300 20.656200 0.000500 0.002800 21.597601 -15.004200 3.956400 36.104198 0.001500 0.004700 19.090700 0.000400 0.002600 -68.349899 3.352900 -3.072500 56.125500 7.899500 -2.754900 -7.684700 0.985500 -5.298700 1.395200 -0.000000 0.000000 0.304000 -7.835500 -3.055100 29.492701 -1.203500 -2.963200 -7.402900 -1.526900 12.704900 -2.562300 0.000000 -0.000000 
0.009530 0.680173 0.354265 1.544700 20.391701 6.044700 11.951000 0.079900 -5.647700 7.905000 0.152100 -1.022400 7.900500 0.167000 -1.032500 -3.676200 -0.819700 0.267700 -0.000000 0.000000 -0.000000 -3.546100 -4.510400 2.521100 -24.350100 4.051700 -9.709200 -49.990398 6.306300 -9.997300 0.000000 -0.000000 -18.956100 -50.751598 50.907501 46.127602 4.151900 5.191900 11.631500 16.822599 3.599800 -16.894400 6.356300 -5.816500 -28.101299 -15.478500 -0.047600 -5.396500 -26.078300 0.001500 -0.006600 -14.999700 0.000500 -0.003900 -4.546500 -0.002200 2.384200 -24.973900 0.001400 -0.006400 -18.627800 0.000800 -0.004800 -6.011700 -0.003100 0.832600 -48.526600 0.005100 -0.011300 -18.343500 0.000800 -0.004700 4.031500 0.007300 -5.388900 -35.349899 0.002800 -0.008700 -15.797800 0.000600 -0.004100 15.377900 1.455200 3.060500 55.138802 4.577400 19.546900 0.000000 0.000000 63.019699 -8.964200 30.352800 3.540400 -8.727500 -0.507400 -8.388100 12.255100 8.959400 -14.985600 -1.599100 -16.942101 5.245500 24.446501 0.348300 7.617100 34.963600 0.001400 0.004500 25.693399 0.000800 0.003400 22.385300 -0.001400 6.071500 44.100700 0.002200 0.005500 21.904699 0.000600 0.003000 20.362600 -0.000700 0.943500 52.138901 0.003100 0.006200 21.104099 0.000500 0.002800 27.558300 -15.000000 5.392600 33.430199 0.001300 0.004400 19.074499 0.000400 0.002600 -66.584999 2.922100 -3.290900 39.354900 8.173500 -2.221800 0.581800 0.772900 -4.091100 -0.066700 -0.000000 0.000000 2.233400 -4.969400 -1.637300 40.303600 -1.253700 -5.543000 -8.490400 -1.338100 10.243100 -2.283800 -0.000000 -0.000000 
